<svg id="Dairy_Product" data-name="Dairy Product" xmlns="http://www.w3.org/2000/svg" width="40.401" height="40.402" viewBox="0 0 40.401 40.402">
  <g id="Outline">
    <path id="Path_151" data-name="Path 151" d="M289.894,409.3a.631.631,0,0,0,.631-.631c0-1.208-2.525-.615-2.525,1.263s2.525,2.474,2.525,1.263a.631.631,0,0,0-.631-.631.631.631,0,0,1,0-1.263Z" transform="translate(-265.274 -375.838)" fill="#333"/>
    <path id="Path_152" data-name="Path 152" d="M267.788,353.894a1.894,1.894,0,1,0-1.894,1.894A1.894,1.894,0,0,0,267.788,353.894Zm-2.525,0a.631.631,0,1,1,.631.631A.631.631,0,0,1,265.263,353.894Z" transform="translate(-243.168 -324.224)" fill="#333"/>
    <path id="Path_153" data-name="Path 153" d="M225.894,432a1.894,1.894,0,1,0,1.894,1.894A1.894,1.894,0,0,0,225.894,432Zm0,2.525a.631.631,0,1,1,.631-.631A.631.631,0,0,1,225.894,434.525Z" transform="translate(-206.325 -397.912)" fill="#333"/>
    <path id="Path_154" data-name="Path 154" d="M187.529,229.983a10.378,10.378,0,0,1-10.155-2.046l.487-1.266a2.571,2.571,0,0,0,1.492-3.874l1.667-4.33c2.726.842,4.348-3.522,1.818-4.723l1.368-3.553,1.857,4.823a.631.631,0,0,0,1.178-.454l-2.116-5.495h3.066l.711,1.847a2.524,2.524,0,0,0,2.29,4.373.631.631,0,1,0-.329-1.219,1.263,1.263,0,0,1-.906-2.345.631.631,0,0,0,.305-.791l-1.049-2.724a.631.631,0,0,0-.589-.4c-4.536,0-4.8-.148-5.008.4-2.177,5.884-2.424,5.784-2.157,6.25a.631.631,0,0,0,.445.309c1.366.225,1.029,1.855.3,2.372a1,1,0,0,1-1.189-.059.631.631,0,0,0-.929.305l-2.04,5.3a.631.631,0,0,0,.136.667,1.287,1.287,0,0,1-.816,2.124.631.631,0,0,0-.551.4l-.772,2a.631.631,0,0,0,.149.679,11.562,11.562,0,0,0,11.742,2.618.631.631,0,1,0-.4-1.2Z" transform="translate(-162.112 -191.389)" fill="#333"/>
    <path id="Path_155" data-name="Path 155" d="M334.519,320H320.631a.631.631,0,1,0,0,1.263h.686l1.21,13.314a.631.631,0,0,0,.628.574h8.838a.631.631,0,0,0,.629-.574l.459-5.056a.631.631,0,1,0-1.257-.114l-.407,4.481h-7.685l-1.148-12.625h9.98l-.283,3.116a.631.631,0,0,0,1.257.114l.293-3.23h.686a.631.631,0,1,0,0-1.263Z" transform="translate(-294.749 -294.749)" fill="#000"/>
    <path id="Path_156" data-name="Path 156" d="M274.114,15.138a.631.631,0,0,0,.745-.492,5.681,5.681,0,0,1,2.158-3.409.63.63,0,0,0,.068-.059c.838-.839.962-2.41-.657-3.763a.909.909,0,0,1-.316-.9c.02-.056.073-.205.434-.2,7.645.146,8.028-.224,8.189.214a.883.883,0,0,1-.311.888,3.036,3.036,0,0,0-1.255,2.155,2.2,2.2,0,0,0,.665,1.667,5.71,5.71,0,0,1,2.272,4.545.631.631,0,1,0,1.263,0,6.979,6.979,0,0,0-2.725-5.516c-.516-.64-.038-1.358.59-1.883,1.143-.955,1.076-2.866-.389-3.265V.631A.631.631,0,0,0,284.213,0h-7.575a.631.631,0,0,0-.631.631V5.118c-1.48.395-1.534,2.308-.389,3.265.636.532,1.1,1.248.59,1.883a6.943,6.943,0,0,0-2.586,4.127A.631.631,0,0,0,274.114,15.138ZM277.27,1.263h6.313V2.525h-4.419a.631.631,0,0,0,0,1.263h4.419V5.05H277.27Z" transform="translate(-252.019)" fill="#009282"/>
    <path id="Path_157" data-name="Path 157" d="M36.419,265.471a.631.631,0,0,0-.631-.631,2.528,2.528,0,0,1-2.525-2.525c0-.961,1.394-3.139,2.525-4.65,1.131,1.51,2.525,3.688,2.525,4.65a.631.631,0,0,0,1.263,0c0-1.91-2.958-5.655-3.295-6.076a.631.631,0,0,0-.985,0c-.337.421-3.295,4.166-3.295,6.076C32,265.8,36.419,267,36.419,265.471Z" transform="translate(-29.475 -235.802)" fill="#009282"/>
    <path id="Path_158" data-name="Path 158" d="M14.519,39.138H12.625V10.906L15.79,5.633l3.175,5.274v6.137a.631.631,0,1,0,1.263,0V10.732c0-.321.03-.064-3.814-6.51V.631A.631.631,0,0,0,15.782,0H4.419a.631.631,0,0,0-.631.631V4.244l-.505.842a.631.631,0,1,0,1.083.649l.411-.685h9.89l-3.03,5.05H9.469a.631.631,0,0,0,0,1.263h1.894v5.05H1.263v-5.05H6.944a.631.631,0,0,0,0-1.263h-5.2l.021-.036A.631.631,0,1,0,.685,9.415C.059,10.46,0,10.5,0,10.732V39.77a.631.631,0,0,0,.631.631H14.519a.631.631,0,1,0,0-1.263ZM5.05,3.788V1.263h10.1V3.788Zm6.313,35.351H1.263v-5.05h10.1Zm0-6.313H1.263V17.675h10.1Z" fill="#009282"/>
    <circle id="Ellipse_19" data-name="Ellipse 19" cx="0.612" cy="0.612" r="0.612" transform="translate(2.04 6.937)" fill="#009282"/>
    <circle id="Ellipse_20" data-name="Ellipse 20" cx="0.612" cy="0.612" r="0.612" transform="translate(8.161 28.564)" fill="#009282"/>
    <circle id="Ellipse_21" data-name="Ellipse 21" cx="0.612" cy="0.612" r="0.612" transform="translate(34.277 17.547)" fill="#009282"/>
    <circle id="Ellipse_22" data-name="Ellipse 22" cx="0.612" cy="0.612" r="0.612" transform="translate(37.134 31.421)" fill="#000"/>
    <path id="Path_159" data-name="Path 159" d="M432.631,256a.631.631,0,0,0-.631.631v2.525a.631.631,0,1,0,1.263,0v-2.525A.631.631,0,0,0,432.631,256Z" transform="translate(-397.912 -235.799)" fill="#009282"/>
  </g>
</svg>
