<svg xmlns="http://www.w3.org/2000/svg" width="41.797" height="45.047" viewBox="0 0 41.797 45.047">
  <g id="meat" transform="translate(-0.5 0)">
    <path id="Path_225" data-name="Path 225" d="M71.5,189.5a3.385,3.385,0,1,0,1.636,2.01A3.389,3.389,0,0,0,71.5,189.5Zm.209,3.961a2.065,2.065,0,1,1,.162-1.573A2.052,2.052,0,0,1,71.713,193.462Zm0,0" transform="translate(-60.202 -172.458)" fill="#009282"/>
    <path id="Path_226" data-name="Path 226" d="M103.781,402.963a7.355,7.355,0,0,0-2.64-2.333c-2.5-1.366-5.1-1.261-5.916.239a2.011,2.011,0,0,0-.234.782l-.331,3.307a.613.613,0,0,0,0,.079c-.027,1.4,1.18,2.771,3.318,3.756a7.91,7.91,0,0,0,3.222.76l.128,0a2.792,2.792,0,0,0,2.547-1.227,2.832,2.832,0,0,0,.23-.737c0-.018.006-.036.008-.054l.251-2.5A3.1,3.1,0,0,0,103.781,402.963Zm-6.052-1.979h.017a6.665,6.665,0,0,1,4.927,2.7,1.94,1.94,0,0,1,.381,1.134.755.755,0,0,1-.083.294,1.481,1.481,0,0,1-1.347.519h-.016a6.112,6.112,0,0,1-2.761-.8c-1.628-.891-2.573-2.184-2.549-2.982a.762.762,0,0,1,.085-.339A1.48,1.48,0,0,1,97.729,400.984Zm4.984,6.707c-.378.691-2.249.8-4.187-.1-1.571-.723-2.57-1.718-2.551-2.538l.078-.781a7.814,7.814,0,0,0,2.159,1.7,7.256,7.256,0,0,0,3.393.959,3.9,3.9,0,0,0,1.255-.192l-.063.624A2.188,2.188,0,0,1,102.713,407.691Zm0,0" transform="translate(-85.871 -364.507)" fill="#009282"/>
    <path id="Path_227" data-name="Path 227" d="M42.179,22.745a1.848,1.848,0,0,0-.97-1.041.559.559,0,0,1-.277-.742,1.859,1.859,0,0,0-3.383-1.542l-.31.679a5.328,5.328,0,0,0-5.394-1L29.081,20.13a.66.66,0,0,0,.462,1.236l2.764-1.033a4,4,0,0,1,2.8,7.5L30.23,29.659a8.382,8.382,0,0,0-1.728-.076c-2.367.134-4.253,1.172-4.761,2.5l-3.186,1.191a8.552,8.552,0,0,0,.71-3.15,8.146,8.146,0,0,0-.7-3.84,4.1,4.1,0,0,0-.883-1.234l7.032-2.628a.66.66,0,0,0-.462-1.236l-2.94,1.1a21.309,21.309,0,0,0,.928-9.3,10.473,10.473,0,0,0-1.935-4.883l.566-1.048a2.678,2.678,0,0,0,2.8-1.353,2.657,2.657,0,0,0-3.1-3.808A2.657,2.657,0,1,0,18.1,4.482l-.48.89a9.928,9.928,0,0,0-5.205.825.66.66,0,1,0,.51,1.217c2.451-1.027,4.689-1.061,6.474-.1,1.884,1.018,3.109,3.048,3.54,5.872a20.005,20.005,0,0,1-.9,8.76,11.589,11.589,0,0,0-6.067-8.285,11.54,11.54,0,0,0-10.257-.521,22.208,22.208,0,0,1,4.56-4.266.66.66,0,1,0-.745-1.089A26.478,26.478,0,0,0,1.556,17h0C-.583,20.962.6,26.039,4.44,29.346a.66.66,0,1,0,.862-1c-3.364-2.9-4.427-7.307-2.585-10.719h0v0c2.218-4.105,7.881-5.361,12.625-2.8a10.029,10.029,0,0,1,5.477,8.392l-.921.344a9.045,9.045,0,0,0-5.059-7.8c-4.311-2.328-9.4-1.3-11.337,2.293s-.01,8.409,4.3,10.738a10.173,10.173,0,0,0,4.809,1.256,8.692,8.692,0,0,0,1.993-.23c0,.007,0,.014,0,.022-.014.333-.011.658.007.975a10.439,10.439,0,0,1-6.9-.877.66.66,0,0,0-.579,1.186,12.115,12.115,0,0,0,5.308,1.254,11.031,11.031,0,0,0,2.34-.25c.425,1.994,1.526,3.391,2.908,3.451a2.2,2.2,0,0,0,.93-.169L23.731,33.5c.017.045.049.119.07.163l1.489,3.025a.685.685,0,0,0,.04.069c.588.985,1.861,1.513,3.579,1.513a9.752,9.752,0,0,0,1.223-.081,7.825,7.825,0,0,0,3.244-1.128,2.794,2.794,0,0,0,1.513-2.389,2.827,2.827,0,0,0-.194-.747c-.007-.017-1.21-2.457-1.227-2.482a3.14,3.14,0,0,0-1.22-1.126l3.325-1.243a5.289,5.289,0,0,0,2.98-2.779,5.342,5.342,0,0,0,.436-1.513l.677.309a1.859,1.859,0,0,0,2.512-2.342ZM20.025,6.155a7.042,7.042,0,0,0-1.076-.469l.565-1.046a.66.66,0,0,0-.219-.865,1.345,1.345,0,0,1-.442-1.753,1.338,1.338,0,0,1,1.813-.542,1.342,1.342,0,0,1,.688,1.377.66.66,0,0,0,1.093.59,1.338,1.338,0,0,1,2.175.614,1.329,1.329,0,0,1-.1,1.019,1.345,1.345,0,0,1-1.708.592.66.66,0,0,0-.843.292l-.607,1.124A7.07,7.07,0,0,0,20.025,6.155ZM8.431,27.628c-3.671-1.982-5.361-6-3.767-8.949s5.878-3.741,9.549-1.759a8.739,8.739,0,0,1,3.437,3.268,6.371,6.371,0,0,1,.894,3.881l-1.276.477a.685.685,0,0,0-.084.039A5.141,5.141,0,0,0,14.775,28.4,8.4,8.4,0,0,1,8.431,27.628Zm11.516,2.44c-.092,2.138-.924,3.7-1.756,4.09a1.072,1.072,0,0,1-.44.1c-.952-.041-1.936-1.843-1.827-4.362.108-2.49,1.218-4.189,2.162-4.189h.034c.453.02.913.441,1.261,1.156A6.818,6.818,0,0,1,19.947,30.068Zm5.861,1.61a6.117,6.117,0,0,1,2.769-.778c2.146-.122,3.8.7,3.848,1.515.022.379-.3.8-.883,1.161a6.11,6.11,0,0,1-2.769.778c-1.852.105-3.339-.493-3.741-1.183a.761.761,0,0,1-.107-.332C24.9,32.461,25.225,32.038,25.808,31.678Zm4.159,5.2c-1.716.217-3.09-.1-3.507-.805l-.346-.7a7.574,7.574,0,0,0,2.23.318q.248,0,.5-.014A6.125,6.125,0,0,0,33.2,33.865l.277.563a2.128,2.128,0,0,1,.1.315C33.616,35.529,32.084,36.608,29.967,36.876ZM40.928,23.619a.54.54,0,0,1-.714.267l-1.235-.563a5.383,5.383,0,0,0-.283-1.1,5.314,5.314,0,0,0-.51-1.015l.563-1.236a.539.539,0,1,1,.981.447,1.882,1.882,0,0,0,.931,2.49.539.539,0,0,1,.267.714Zm0,0" transform="translate(0)" fill="#009282"/>
    <path id="Path_228" data-name="Path 228" d="M130.187,110.71a.66.66,0,0,0,0-1.32h-.012a.656.656,0,0,0-.652.663.663.663,0,0,0,.664.656Zm0,0" transform="translate(-117.668 -99.766)" fill="#009282"/>
    <path id="Path_229" data-name="Path 229" d="M155.484,110.05a.66.66,0,0,0-.66-.66h-.008a.657.657,0,0,0-.656.66.662.662,0,0,0,1.324,0Zm0,0" transform="translate(-140.141 -99.766)" fill="#009282"/>
  </g>
</svg>
