<svg xmlns="http://www.w3.org/2000/svg" width="46.54" height="41.279" viewBox="0 0 46.54 41.279">
  <g id="Group_95" data-name="Group 95" transform="translate(-2475.72 -946.998)">
    <g id="butter" transform="translate(2475.72 964.826)">
      <g id="Group_93" data-name="Group 93" transform="translate(0 0)">
        <path id="Path_194" data-name="Path 194" d="M28.161,69.506h-3V65.236a6.19,6.19,0,0,0,.913.075c2.409,0,2.18-1.863,2.18-1.863L25.165,61.5V58.122a.6.6,0,0,0-.6-.6H18.832l-3.4-2.1c-2.217-1.821-7.592-6.183-10.116-7.77a2.565,2.565,0,0,0-1.361-.4A2.621,2.621,0,0,0,1.722,48.6a2.533,2.533,0,0,0,.706,3.65c2.235,1.406,7.4,3.885,10.355,5.276H4.194a.6.6,0,0,0-.6.6V69.506H.6a.6.6,0,0,0,0,1.2H28.161a.6.6,0,0,0,0-1.2Zm-3-6.588,1.681,1.057a1.761,1.761,0,0,1-.768.137,5.114,5.114,0,0,1-.913-.093ZM3.065,51.233a1.341,1.341,0,0,1-.329-2,1.452,1.452,0,0,1,1.22-.783,1.362,1.362,0,0,1,.723.213c2.5,1.572,7.987,6.033,10.111,7.779l-.337.536C11.959,55.821,5.566,52.805,3.065,51.233Zm14.91,18.273H4.793V58.721h1.2v1.2a.6.6,0,0,0,1.2,0v-1.2h2.4v3a.6.6,0,0,0,1.2,0v-3h3.1l.166,1.29c1.452.913,2.756,1.68,3.927,2.322Zm0-8.544q-1.33-.749-2.811-1.667l-.128-.991.788-1.255,2.15,1.351Zm5.991,8.544h-.6v-1.8a.6.6,0,0,0-1.2,0v1.8H19.174V58.721h1.2v1.2a.6.6,0,0,0,1.2,0v-1.2h2.4Z" transform="translate(0 -47.254)" fill="#009282"/>
      </g>
    </g>
    <g id="natural-oil" transform="translate(2504.48 946.998)">
      <path id="Path_195" data-name="Path 195" d="M164.135,13.358a9.918,9.918,0,0,0-1.455-5.172.6.6,0,1,0-1.028.628,8.721,8.721,0,0,1,.979,2.284H147.857a8.7,8.7,0,0,1,2.763-4.373l1.614-1.376h6.022l1.614,1.376.09.079.025.022a.6.6,0,0,0,.8-.9l-.024-.021-.108-.094-1.571-1.34V2.086A2.088,2.088,0,0,0,156.994,0h-3.5a2.088,2.088,0,0,0-2.086,2.086V4.469l-1.571,1.34a9.906,9.906,0,0,0-3.484,7.549v1.4a.6.6,0,1,0,1.2,0v-1.4a8.756,8.756,0,0,1,.065-1.055h15.242a8.7,8.7,0,0,1,.065,1.055V23.792H147.559V17.326a.6.6,0,0,0-1.2,0v7.068a6.13,6.13,0,0,0,.862,3.134,1.785,1.785,0,0,0-.862,1.527v.837a1.777,1.777,0,0,0,.449,1.182,1.777,1.777,0,0,0-.449,1.182v.837a1.777,1.777,0,0,0,.449,1.182,1.777,1.777,0,0,0-.449,1.182v.837a1.777,1.777,0,0,0,.449,1.182,1.777,1.777,0,0,0-.449,1.182v.837a1.786,1.786,0,0,0,1.784,1.784h14.212a1.786,1.786,0,0,0,1.784-1.784v-.837a1.777,1.777,0,0,0-.449-1.182,1.777,1.777,0,0,0,.449-1.182v-.837a1.777,1.777,0,0,0-.449-1.182,1.777,1.777,0,0,0,.449-1.182v-.837a1.777,1.777,0,0,0-.449-1.182,1.777,1.777,0,0,0,.449-1.182v-.837a1.785,1.785,0,0,0-.862-1.527,6.131,6.131,0,0,0,.862-3.134ZM153.5,1.2h3.5a.883.883,0,0,1,.882.882V4.145h-5.261V2.086A.883.883,0,0,1,153.5,1.2Zm9.435,31.889a.581.581,0,0,1-.58.58H148.139a.581.581,0,0,1-.58-.58v-.837a.581.581,0,0,1,.58-.58h14.212a.581.581,0,0,1,.58.58Zm0-3.2a.581.581,0,0,1-.58.58H148.139a.581.581,0,0,1-.58-.58v-.837a.581.581,0,0,1,.58-.58h14.212a.581.581,0,0,1,.58.58Zm-.914-2.621H148.473l-.163-.261A4.928,4.928,0,0,1,147.6,25h15.3a4.928,4.928,0,0,1-.713,2.014Zm.914,12.224a.581.581,0,0,1-.58.58H148.139a.581.581,0,0,1-.58-.58v-.837a.581.581,0,0,1,.58-.58h8.021a.6.6,0,0,0,0-1.2h-8.021a.581.581,0,0,1-.58-.58v-.837a.581.581,0,0,1,.58-.58h14.212a.581.581,0,0,1,.58.58v.837a.581.581,0,0,1-.58.58H158.73a.6.6,0,0,0,0,1.2h3.621a.581.581,0,0,1,.58.58Z" transform="translate(-146.355 0)" fill="#444"/>
      <path id="Path_196" data-name="Path 196" d="M217.482,171.27a.6.6,0,0,0,.6-.6v-.961a3.419,3.419,0,0,0,2.812-3.36c0-1.288-1.426-3.49-2.622-5.11a.984.984,0,0,0-1.584,0c-1.2,1.62-2.622,3.822-2.622,5.11a3.419,3.419,0,0,0,2.812,3.36v.961A.6.6,0,0,0,217.482,171.27Zm.6-2.8v-.979l1.542-1.542a1.532,1.532,0,0,1,.065.4A2.213,2.213,0,0,1,218.084,168.472Zm1.032-3.713-1.032,1.032v-2.734A19.232,19.232,0,0,1,219.116,164.759Zm-2.236-1.7v2.736l-1.032-1.032A19.23,19.23,0,0,1,216.88,163.057Zm-1.608,3.29a1.527,1.527,0,0,1,.065-.394l1.543,1.543v.977A2.213,2.213,0,0,1,215.272,166.347Z" transform="translate(-208.632 -147.925)" fill="#009282"/>
    </g>
  </g>
</svg>
